HIERARCHY
ROOT ui
{
	 OFFSET 0 0 0
	 CHANNELS 3 XPosition YPosition Z Position
	 EndSite
	 {
	 OFFSET 0 -1 0
	 }
}
ROOT li
{
	 OFFSET 0 0 0
	 CHANNELS 3 XPosition YPosition Z Position
	 EndSite
	 {
	 OFFSET 0 -1 0
	 }
}
ROOT ul
{
	 OFFSET 0 0 0
	 CHANNELS 3 XPosition YPosition Z Position
	 EndSite
	 {
	 OFFSET 0 -1 0
	 }
}
ROOT ll
{
	 OFFSET 0 0 0
	 CHANNELS 3 XPosition YPosition Z Position
	 EndSite
	 {
	 OFFSET 0 -1 0
	 }
}
ROOT tt
{
	 OFFSET 0 0 0
	 CHANNELS 3 XPosition YPosition Z Position
	 EndSite
	 {
	 OFFSET 0 -1 0
	 }
}
ROOT tb
{
	 OFFSET 0 0 0
	 CHANNELS 3 XPosition YPosition Z Position
	 EndSite
	 {
	 OFFSET 0 -1 0
	 }
}
ROOT td
{
	 OFFSET 0 0 0
	 CHANNELS 3 XPosition YPosition Z Position
	 EndSite
	 {
	 OFFSET 0 -1 0
	 }
}
ROOT v
{
	 OFFSET 0 0 0
	 CHANNELS 3 XPosition YPosition Z Position
	 EndSite
	 {
	 OFFSET 0 -1 0
	 }
}
ROOT bn
{
	 OFFSET 0 0 0
	 CHANNELS 3 XPosition YPosition Z Position
	 EndSite
	 {
	 OFFSET 0 -1 0
	 }
}
MOTION
Frames: 27
Frame Time: 0.002
-0.008474234580993653	0.004067366123199463	0		0.5092861633300781	-2.448186767578125	0		-1.173027587890625	0.04487896728515625	0		-0.6716866455078125	-2.659175537109375	0		2.249447998046875	-1.416712890625	0		3.7594765625	-0.90916357421875	0		4.9954443359375	-0.4779010620117187	0		5.93944873046875	0.3263589477539062	0		-0.060021556854248044	5.93131298828125	0		
-0.021342403411865236	-4.407379925251007E-4	0		0.4634377746582031	-2.451246337890625	0		-1.1728291015625	0.04519244384765625	0		-0.6565403442382812	-2.663064453125	0		2.251702392578125	-1.4124224853515626	0		3.7714580078125	-0.9250050659179687	0		4.9805634765625	-0.4833754272460937	0		5.93887744140625	0.34369366455078126	0		-0.0257524471282959	5.937166015625	0		
0.04890013885498047	0.00694163179397583	0		0.4935774841308594	-2.451320068359375	0		-1.211630859375	0.05005357360839844	0		-0.7011900024414063	-2.64712255859375	0		2.241994140625	-1.4009527587890624	0		3.76384423828125	-0.9065618286132813	0		4.991703125	-0.4831874084472656	0		5.94800341796875	0.3429097595214844	0		-0.057722621917724606	5.92993408203125	0		
-0.018084152221679688	0.0032024250030517577	0		0.48477883911132813	-2.441847412109375	0		-1.1795428466796876	0.05096971130371094	0		-0.6631421508789063	-2.649287353515625	0		2.2382216796875	-1.389547607421875	0		3.771677001953125	-0.9243162231445312	0		4.99178076171875	-0.4828343811035156	0		5.9519716796875	0.3352096252441406	0		-0.023569330215454102	5.9358232421875	0		
0.0018264410495758057	-0.003700655937194824	0		0.5097160339355469	-2.446818603515625	0		-1.1955745849609376	0.048554882049560544	0		-0.6631348266601562	-2.648919677734375	0		2.240269775390625	-1.3862073974609375	0		3.7887099609375	-0.9221795654296875	0		4.98640869140625	-0.5103963928222657	0		5.9481015625	0.34463058471679686	0		-0.02356167984008789	5.93619091796875	0		
-0.03511806488037109	0.0061833419799804685	0		0.5076039733886719	-2.44940869140625	0		-1.108666259765625	0.04675756072998047	0		-0.6632064819335938	-2.64853662109375	0		2.227322021484375	-1.3766505126953126	0		3.75456103515625	-0.927337158203125	0		4.98633837890625	-0.5100167541503906	0		5.9519091796875	0.3359561767578125	0		-0.03976242065429687	5.92679150390625	0		
-0.025393449783325195	-0.002555968999862671	0		0.491408935546875	-2.451796630859375	0		-1.2397928466796875	0.04993274688720703	0		-0.6843470458984375	-2.646855224609375	0		2.237343505859375	-1.36339501953125	0		3.756380126953125	-0.9289739379882812	0		4.9739013671875	-0.5304635009765625	0		5.9437578125	0.33645187377929686	0		-0.05785034561157226	5.93143115234375	0		
-0.013587859153747559	6.870369911193847E-4	0		0.5221929931640625	-2.449812744140625	0		-1.10399853515625	0.05149538040161133	0		-0.6296607666015624	-2.652193603515625	0		2.248294921875	-1.3491451416015625	0		3.769006591796875	-0.9387529296875	0		4.96676171875	-0.5229755859375	0		5.94763330078125	0.3447878723144531	0		-0.057096565246582034	5.92982421875	0		
-0.018842580795288087	0.0051688218116760255	0		0.48602667236328123	-2.43791259765625	0		-1.2082032470703126	0.06032554244995117	0		-0.6897169799804688	-2.6319638671875	0		2.2441298828125	-1.3376864013671874	0		3.7619521484375	-0.919260009765625	0		4.9674775390625	-0.5205943603515625	0		5.9473251953125	0.3451790161132812	0		-0.05738309860229492	5.93023876953125	0		
6.863409876823425E-4	-0.0016826889514923095	0		0.5085423583984375	-2.4448076171875	0		-1.127638916015625	0.055651363372802735	0		-0.6521358032226563	-2.634056884765625	0		2.202119384765625	-1.3097108154296875	0		3.7504111328125	-0.9307099609375	0		4.97271923828125	-0.5482802734375	0		5.94284423828125	0.3376219482421875	0		-0.039768173217773435	5.9274140625	0		
-0.02179068183898926	-0.004961717128753662	0		0.48113082885742187	-2.442022705078125	0		-1.128063232421875	0.056080570220947264	0		-0.65055126953125	-2.631658203125	0		2.201685791015625	-1.3093040771484374	0		3.74691259765625	-0.9352725219726562	0		4.9572109375	-0.5536878662109375	0		5.942421875	0.33800335693359373	0		-0.059083045959472655	5.93309375	0		
0.052797569274902346	-0.0015611909627914428	0		0.48269235229492186	-2.43863330078125	0		-1.123468017578125	0.060442138671875	0		-0.6869605712890625	-2.625742919921875	0		2.16854541015625	-1.2844547119140626	0		3.74644580078125	-0.93488232421875	0		4.95878759765625	-0.5503350219726563	0		5.93785693359375	0.3304307861328125	0		-0.05949384689331055	5.93351513671875	0		
-0.020578767776489256	0.0068485989570617675	0		0.45624795532226564	-2.433866943359375	0		-1.209937744140625	0.062040542602539064	0		-0.66846533203125	-2.62557763671875	0		2.1913251953125	-1.26437255859375	0		3.7372451171875	-0.9133795166015625	0		4.95318212890625	-0.558895263671875	0		5.9455986328125	0.34668212890625	0		-0.05894382095336914	5.93191943359375	0		
0.05576532745361328	-0.005787051200866699	0		0.5106642150878906	-2.43920849609375	0		-1.14134716796875	0.06752447509765624	0		-0.6798678588867187	-2.617010009765625	0		2.162088134765625	-1.2445902099609376	0		3.73454638671875	-0.927977783203125	0		4.95652734375	-0.5705880737304687	0		5.9490078125	0.33897869873046876	0		-0.026262001037597658	5.9398818359375	0		
-0.028643159866333007	7.605339884757996E-4	0		0.48116943359375	-2.437415283203125	0		-1.141830810546875	0.06794063568115234	0		-0.6424117431640625	-2.61911669921875	0		2.154890625	-1.2221168212890625	0		3.736256103515625	-0.9126436767578125	0		4.931998046875	-0.5729112548828125	0		5.94052783203125	0.33942620849609373	0		-0.04085720443725586	5.9274775390625	0		
0.05087030792236328	6.265299767255783E-5	0		0.5076193542480468	-2.4403955078125	0		-1.0793013916015626	0.0684871597290039	0		-0.678848876953125	-2.6132255859375	0		2.147684814453125	-1.2006544189453126	0		3.714686767578125	-0.9180056762695312	0		4.93533447265625	-0.5856271362304688	0		5.94394287109375	0.331698486328125	0		-0.04224197006225586	5.929884765625	0		
-0.024650142669677733	-0.002532970905303955	0		0.45421920776367186	-2.4322978515625	0		-1.1647518310546876	0.07104050445556641	0		-0.67429736328125	-2.60890576171875	0		2.151484619140625	-1.17935498046875	0		3.689437744140625	-0.9003277587890625	0		4.9256650390625	-0.5991787719726562	0		5.93958349609375	0.3400650634765625	0		-0.07672586822509765	5.92473046875	0		
0.008974288940429688	0.004367958068847657	0		0.4877889099121094	-2.427402099609375	0		-1.156110595703125	0.07929581451416015	0		-0.702600830078125	-2.594151123046875	0		2.12748388671875	-1.1436885986328125	0		3.71175244140625	-0.9153162841796875	0		4.92518994140625	-0.5988683471679688	0		5.943009765625	0.33231008911132814	0		-0.05903312683105469	5.9318505859375	0		
-0.025583478927612306	-0.0018172789812088014	0		0.48729754638671874	-2.42705810546875	0		-1.0986214599609374	0.07586455535888671	0		-0.6292103271484375	-2.602805419921875	0		2.111336181640625	-1.1191456298828124	0		3.674732177734375	-0.8815040283203125	0		4.91576025390625	-0.59544921875	0		5.9466572265625	0.3405400390625	0		-0.027328241348266603	5.93976220703125	0		
-4.898399859666824E-5	-0.0018424570560455322	0		0.5008231811523437	-2.425924072265625	0		-1.099083740234375	0.07620568084716797	0		-0.6765164794921875	-2.588826904296875	0		2.101301025390625	-1.0867020263671876	0		3.67401416015625	-0.8992078247070312	0		4.91015478515625	-0.6050975341796875	0		5.9340888671875	0.332977294921875	0		-0.02870580863952637	5.9421064453125	0		
-0.03549061965942383	-5.38019984960556E-5	0		0.4914545593261719	-2.417496337890625	0		-1.10359619140625	0.07257954406738282	0		-0.63904150390625	-2.592031982421875	0		2.099216796875	-1.058385498046875	0		3.656741455078125	-0.8846978149414062	0		4.88846044921875	-0.6215401611328125	0		5.94163232421875	0.3331272888183594	0		-0.044263641357421876	5.93162255859375	0		
-9.557899832725525E-4	-0.0012463220357894897	0		0.455869873046875	-2.425732666015625	0		-1.110974609375	0.07796916961669922	0		-0.7072954711914062	-2.575810546875	0		2.09224169921875	-1.0230205078125	0		3.670272216796875	-0.8856278076171875	0		4.88800830078125	-0.6212868041992188	0		5.93318701171875	0.33348309326171877	0		-0.02952210807800293	5.942703125	0		
-0.0013837980031967162	-9.840540289878846E-4	0		0.478564453125	-2.4157890625	0		-1.11226513671875	0.08824983978271485	0		-0.6626996459960938	-2.573161865234375	0		2.051374267578125	-0.9812108154296875	0		3.628254638671875	-0.8548113403320312	0		4.873509765625	-0.6258570556640625	0		5.9327607421875	0.3337152099609375	0		-0.0630264663696289	5.93541845703125	0		
-0.005724143028259277	0.0033068110942840578	0		0.4682716064453125	-2.407417724609375	0		-1.117728515625	0.08355889892578125	0		-0.6719519653320313	-2.56180078125	0		2.050373046875	-0.9519701538085937	0		3.6427041015625	-0.8657914428710938	0		4.8690302734375	-0.6315811767578124	0		5.94036572265625	0.333822509765625	0		-0.02932353591918945	5.9411884765625	0		
0.05085141754150391	-0.0022651290893554686	0		0.49588760375976565	-2.409593017578125	0		-1.118078857421875	0.08376956939697265	0		-0.6323236694335937	-2.56313916015625	0		2.0414471435546875	-0.9206434936523438	0		3.63669580078125	-0.8405076293945313	0		4.86151513671875	-0.6432819213867188	0		5.935919921875	0.3270786437988281	0		-0.045787494659423826	5.93261767578125	0		
-0.005479846954345703	-0.004316775798797607	0		0.4406668701171875	-2.403658935546875	0		-1.1234287109375	0.0800183334350586	0		-0.6794353637695313	-2.54931591796875	0		2.0356324462890627	-0.8853834228515625	0		3.619347412109375	-0.8440924072265625	0		4.85226171875	-0.6399766235351563	0		5.93972021484375	0.33420578002929685	0		-0.028155494689941406	5.9275517578125	0		
-0.0026594560146331785	-2.079789936542511E-4	0		0.4694349670410156	-2.4039052734375	0		-1.118608642578125	0.08409739685058594	0		-0.7105242309570312	-2.5387431640625	0		2.00677294921875	-0.8578339233398438	0		3.602294921875	-0.8307028198242188	0		4.843837890625	-0.6537052612304688	0		5.9353896484375	0.3274239196777344	0		-0.04633174514770508	5.9329482421875	0		
